<?xml version="1.0" standalone="no"?>
<!DOCTYPE svg PUBLIC "-//W3C//DTD SVG 20010904//EN"
 "http://www.w3.org/TR/2001/REC-SVG-20010904/DTD/svg10.dtd">
<svg version="1.0" xmlns="http://www.w3.org/2000/svg"
  width="90px" height="90px"  viewBox="0 0 1000.000000 999.000000"
 preserveAspectRatio="xMidYMid meet">
<metadata>
Created by potrace 1.16, written by Peter Selinger 2001-2019
</metadata>
<g transform="translate(0.000000,999.000000) scale(0.100000,-0.100000)"
fill="#000000" stroke="none">
<path d="M4620 9979 c-633 -50 -1234 -212 -1795 -483 -2029 -983 -3147 -3192
-2740 -5413 226 -1229 918 -2342 1927 -3096 653 -488 1441 -816 2234 -932 274
-40 354 -46 650 -52 499 -10 908 37 1372 157 1090 283 2063 940 2743 1852 323
433 585 942 748 1452 384 1202 301 2513 -230 3649 -481 1029 -1302 1865 -2324
2367 -583 287 -1181 449 -1844 500 -155 12 -587 11 -741 -1z m721 -79 c522
-40 991 -147 1464 -332 214 -84 565 -260 762 -381 1249 -770 2093 -2050 2297
-3487 39 -273 49 -424 49 -705 0 -281 -10 -432 -49 -705 -259 -1823 -1544
-3365 -3298 -3955 -543 -183 -1087 -265 -1670 -252 -523 11 -982 91 -1462 252
-1717 578 -2984 2065 -3283 3850 -120 718 -77 1468 125 2171 163 570 444 1130
805 1604 857 1129 2138 1827 3554 1939 159 12 549 13 706 1z"/>
<path d="M4625 9779 c-808 -65 -1576 -327 -2250 -767 -1003 -654 -1736 -1680
-2025 -2832 -321 -1279 -113 -2620 578 -3725 417 -667 1003 -1232 1687 -1625
143 -83 459 -235 609 -294 753 -298 1577 -401 2386 -300 385 48 802 155 1165
299 151 60 466 212 610 294 648 372 1217 909 1628 1534 853 1296 1022 2947
450 4397 -396 1004 -1135 1858 -2078 2400 -143 83 -458 235 -610 295 -447 177
-921 286 -1419 325 -148 12 -583 11 -731 -1z m429 -3913 c73 -228 131 -330
227 -393 l40 -26 -21 -22 c-92 -98 23 -262 139 -199 52 29 76 67 74 120 l-1
44 79 41 c58 30 96 60 141 108 34 36 59 59 56 51 -3 -8 -36 -149 -73 -313 -65
-280 -70 -298 -89 -294 -12 3 -66 16 -121 30 -168 43 -254 52 -505 52 -251 0
-337 -9 -505 -52 -55 -14 -109 -27 -121 -30 -19 -4 -24 14 -89 294 -37 164
-70 304 -73 312 -3 8 28 -20 69 -61 56 -56 90 -81 142 -103 66 -29 67 -31 62
-62 -7 -39 13 -90 50 -123 40 -38 113 -36 154 4 55 53 59 130 11 181 l-21 23
34 21 c96 59 157 163 232 397 26 79 50 144 55 144 5 0 29 -65 54 -144z m236
-830 c128 -18 229 -42 295 -72 43 -19 46 -22 23 -23 -15 -1 -66 10 -112 23
-146 43 -282 59 -496 59 -214 0 -351 -17 -496 -59 -46 -13 -97 -24 -112 -24
-26 1 -26 1 9 20 50 26 179 59 297 75 131 18 460 18 592 1z m1696 -309 c19
-17 27 -33 26 -55 -1 -40 -6 -49 -44 -68 -61 -31 -131 5 -131 68 0 68 93 103
149 55z m-2756 -250 c0 -240 1 -247 52 -247 27 0 28 -1 28 -55 l0 -55 -32 -1
c-98 -5 -147 13 -178 64 -18 29 -20 52 -20 275 l0 242 75 0 75 0 0 -223z
m1090 -1 c0 -243 2 -254 55 -244 23 5 25 2 27 -33 1 -22 2 -47 2 -56 2 -41
-136 -33 -183 10 -47 43 -51 70 -51 317 l0 230 75 0 75 0 0 -224z m1130 129
l0 -95 42 21 c56 28 149 24 196 -10 58 -41 66 -69 70 -243 l4 -158 -76 0 -76
0 0 123 c0 78 -5 131 -13 147 -16 32 -54 45 -90 31 -43 -17 -57 -63 -57 -191
l0 -111 -72 3 -73 3 -3 288 -2 287 75 0 75 0 0 -95z m-1471 59 c33 -9 69 -30
92 -52 l40 -37 -52 -44 c-29 -25 -54 -40 -58 -34 -16 26 -78 53 -122 53 -84 0
-149 -68 -149 -155 0 -80 52 -142 128 -152 53 -7 83 1 121 33 l31 25 50 -42
50 -42 -26 -28 c-50 -53 -109 -73 -209 -73 -103 0 -162 22 -223 82 -81 82
-101 217 -49 324 63 129 221 188 376 142z m-2733 -9 c152 -45 194 -243 73
-338 l-33 -26 50 -73 c27 -40 53 -78 57 -85 6 -10 -11 -13 -75 -13 l-83 0 -50
75 c-49 73 -51 74 -92 75 l-43 0 0 -75 0 -75 -75 0 -75 0 0 275 0 275 148 0
c102 0 164 -5 198 -15z m3874 -70 l0 -55 50 0 50 0 0 -55 0 -55 -50 0 -50 0 0
-76 c0 -96 10 -116 57 -112 34 3 36 1 53 -45 18 -47 18 -47 -3 -58 -11 -6 -49
-11 -83 -11 -70 0 -113 19 -148 65 -20 26 -21 43 -24 243 l-3 214 75 0 76 0 0
-55z m-3349 -46 c190 -57 199 -327 14 -405 -48 -20 -151 -22 -197 -4 -93 37
-142 107 -143 206 0 50 5 69 30 109 56 90 179 129 296 94z m369 -117 c4 -107
8 -126 24 -138 23 -16 60 -18 86 -4 28 15 40 65 40 172 l0 99 73 -3 72 -3 3
-180 c1 -101 -2 -202 -8 -230 -15 -71 -50 -118 -107 -146 -68 -34 -204 -33
-280 0 -29 13 -53 27 -53 31 0 4 11 28 25 53 l26 46 42 -19 c88 -40 185 -18
201 46 9 34 3 39 -26 21 -87 -57 -231 -5 -258 93 -5 19 -10 93 -10 163 l0 128
73 -3 72 -3 5 -123z m654 113 c27 -14 31 -14 38 0 7 11 26 15 78 15 l70 0 0
-215 0 -215 -70 0 c-65 0 -70 2 -70 22 0 19 -1 20 -17 5 -32 -27 -95 -38 -153
-26 -97 21 -159 103 -160 212 0 96 38 163 115 198 49 23 130 24 169 4z m1960
4 c49 -13 122 -80 136 -125 29 -86 0 -201 -60 -244 -75 -54 -186 -69 -265 -36
-50 21 -103 71 -121 113 -21 48 -18 137 6 182 23 46 82 98 125 110 43 13 133
13 179 0z m1246 -204 l0 -215 -75 0 -75 0 0 215 0 215 75 0 75 0 0 -215z m237
195 c5 -19 6 -19 46 1 53 27 153 23 194 -8 59 -43 68 -73 72 -245 l3 -158 -76
0 -76 0 0 123 c0 78 -5 131 -13 147 -29 58 -112 45 -134 -20 -7 -19 -12 -83
-12 -142 l-1 -108 -70 0 -70 0 0 215 0 215 66 0 c57 0 67 -3 71 -20z m686 -4
l36 -25 3 22 c3 20 10 22 71 25 l67 3 0 -213 c0 -185 -3 -218 -19 -253 -22
-48 -66 -88 -118 -107 -83 -28 -294 -3 -309 37 -4 10 26 85 41 103 1 1 17 -6
36 -15 19 -10 64 -19 101 -21 61 -4 69 -2 92 21 15 15 26 38 26 52 0 25 -1 25
-28 11 -49 -25 -97 -29 -155 -12 -132 38 -188 197 -110 311 58 82 190 113 266
61z"/>
<path d="M4952 5575 l-42 -273 43 -93 44 -94 45 90 45 90 -43 273 c-23 151
-44 275 -46 277 -2 2 -22 -120 -46 -270z m78 -46 l28 -223 -20 -50 c-11 -28
-24 -62 -30 -76 -9 -23 -12 -20 -40 50 l-30 74 28 228 c16 125 30 225 32 223
2 -2 17 -104 32 -226z"/>
<path d="M2050 4471 l0 -81 70 0 c85 0 110 18 110 78 0 57 -26 76 -111 80
l-69 4 0 -81z"/>
<path d="M2622 4408 c-66 -71 -11 -192 79 -173 67 15 95 120 44 170 -32 33
-93 34 -123 3z"/>
<path d="M3681 4404 c-33 -42 -29 -108 8 -145 31 -31 55 -36 94 -18 32 15 48
44 49 91 1 60 -28 92 -84 96 -40 3 -49 -1 -67 -24z"/>
<path d="M5601 4404 c-33 -41 -29 -108 8 -145 36 -36 70 -37 110 -3 27 22 31
32 31 74 0 68 -27 100 -85 100 -35 0 -48 -5 -64 -26z"/>
<path d="M7795 4405 c-48 -47 -19 -128 50 -141 90 -17 148 83 85 146 -30 30
-103 27 -135 -5z"/>
</g>
</svg>
